<?xml version="1.0" encoding="utf-8"?>
<!-- Generator: Adobe Illustrator 20.1.0, SVG Export Plug-In . SVG Version: 6.00 Build 0)  -->
<svg version="1.1" id="Layer_1" xmlns="http://www.w3.org/2000/svg" xmlns:xlink="http://www.w3.org/1999/xlink" x="0px" y="0px"
	 viewBox="0 0 288.6 79.5" style="enable-background:new 0 0 288.6 79.5;" xml:space="preserve">
<style type="text/css">
	.st0{fill:#932A8E;}
	.st1{font-family:'Lato-Light';}
	.st2{font-size:58.4303px;}
	.st3{letter-spacing:-1;}
	.st4{opacity:0.8;fill:#932A8E;}
	.st5{opacity:0.4;fill:#932A8E;}
	.st6{opacity:0.9;fill:#932A8E;}
	.st7{fill:#11AF7D;}
</style>
<g>
	<g>
		<text transform="matrix(1 0 0 1 2.5938 71.9233)" class="st0 st1 st2 st3">AL</text>
	</g>
	<g>
		<path class="st4" d="M277.9,38.4c0,0-22.1-7.1-22.5-2.6C255,40.3,277.9,38.4,277.9,38.4z"/>
		<path class="st4" d="M237.3,38.4c0,0,22.1-7.1,22.5-2.6C260.2,40.3,237.3,38.4,237.3,38.4z"/>
		<path class="st5" d="M262.3,42.1c0,0-5.2-7.7-6.4-6.3C254.6,37.1,262.3,42.1,262.3,42.1z"/>
		<path class="st5" d="M252.9,42.1c0,0,5.2-7.7,6.4-6.3C260.6,37.1,252.9,42.1,252.9,42.1z"/>
		<path class="st6" d="M257.6,2.8c0,0-7.1,35.3,0,35.1C264.7,37.7,257.6,2.8,257.6,2.8z"/>
		<path class="st4" d="M280.1,21.3c0,0-27.8,11.5-24.4,16.3C259.2,42.4,280.1,21.3,280.1,21.3z"/>
		<path class="st4" d="M235.1,21.3c0,0,27.8,11.5,24.4,16.3C256.1,42.4,235.1,21.3,235.1,21.3z"/>
	</g>
	<g>
		<path class="st7" d="M102.8,64.8c0.2,0,0.4,0.1,0.5,0.2l1.2,1.3c-0.9,0.9-1.8,1.7-2.8,2.5c-1,0.7-2.1,1.4-3.3,1.9
			c-1.2,0.5-2.5,0.9-3.9,1.2c-1.5,0.3-3,0.4-4.7,0.4c-2.8,0-5.5-0.5-7.9-1.5c-2.4-1-4.4-2.4-6.1-4.3c-1.7-1.8-3-4.1-4-6.7
			c-0.9-2.6-1.4-5.5-1.4-8.7c0-3.1,0.5-6,1.5-8.6c1-2.6,2.4-4.8,4.2-6.7c1.8-1.8,3.9-3.3,6.4-4.3c2.5-1,5.2-1.5,8.2-1.5
			c1.5,0,2.9,0.1,4.1,0.3c1.2,0.2,2.4,0.6,3.5,1c1.1,0.4,2.1,1,3.1,1.6c0.9,0.6,1.9,1.4,2.8,2.2l-0.9,1.3c-0.1,0.2-0.4,0.4-0.7,0.4
			c-0.2,0-0.4-0.1-0.7-0.3c-0.3-0.2-0.6-0.4-1-0.8c-0.4-0.3-0.9-0.6-1.5-1c-0.6-0.3-1.3-0.7-2.1-1c-0.8-0.3-1.8-0.6-2.8-0.8
			c-1.1-0.2-2.3-0.3-3.7-0.3c-2.5,0-4.8,0.5-6.9,1.3c-2.1,0.9-3.9,2.1-5.4,3.7c-1.5,1.6-2.7,3.5-3.5,5.8c-0.9,2.3-1.3,4.9-1.3,7.7
			c0,2.9,0.4,5.5,1.3,7.8c0.8,2.3,2,4.2,3.5,5.8c1.5,1.6,3.2,2.8,5.2,3.7c2,0.8,4.2,1.3,6.6,1.3c1.5,0,2.8-0.1,4-0.3
			c1.1-0.2,2.2-0.5,3.2-0.9c1-0.4,1.9-0.9,2.7-1.4c0.8-0.6,1.7-1.2,2.5-2c0.1-0.1,0.2-0.2,0.3-0.2C102.5,64.8,102.7,64.8,102.8,64.8
			z"/>
		<path class="st7" d="M128.1,71.7c-0.6,0-1-0.3-1.1-0.8l-0.4-3.7c-0.8,0.8-1.6,1.5-2.4,2.1c-0.8,0.6-1.6,1.1-2.5,1.6
			c-0.9,0.4-1.8,0.8-2.8,1c-1,0.2-2.1,0.3-3.3,0.3c-1,0-1.9-0.1-2.9-0.4c-0.9-0.3-1.8-0.7-2.5-1.3c-0.7-0.6-1.3-1.4-1.7-2.3
			c-0.4-1-0.7-2.1-0.7-3.4c0-1.2,0.4-2.4,1.1-3.4c0.7-1.1,1.8-2,3.3-2.8c1.5-0.8,3.4-1.4,5.7-1.9c2.4-0.5,5.2-0.7,8.5-0.8v-3
			c0-2.7-0.6-4.7-1.7-6.2c-1.2-1.5-2.9-2.2-5.2-2.2c-1.4,0-2.6,0.2-3.6,0.6c-1,0.4-1.8,0.8-2.5,1.3c-0.7,0.5-1.2,0.9-1.7,1.3
			c-0.5,0.4-0.8,0.6-1.1,0.6c-0.4,0-0.7-0.2-0.9-0.5l-0.5-0.9c1.5-1.5,3.1-2.7,4.8-3.4c1.7-0.8,3.6-1.2,5.7-1.2
			c1.6,0,2.9,0.2,4.1,0.7c1.2,0.5,2.1,1.2,2.9,2.1c0.8,0.9,1.4,2,1.7,3.3c0.4,1.3,0.6,2.8,0.6,4.4v18.9H128.1z M116.4,70.2
			c1.1,0,2.2-0.1,3.1-0.4c1-0.2,1.8-0.6,2.6-1c0.8-0.4,1.6-1,2.3-1.6c0.7-0.6,1.4-1.3,2.1-1.9v-7.6c-2.8,0.1-5.2,0.3-7.2,0.6
			c-2,0.4-3.7,0.8-4.9,1.4c-1.3,0.6-2.3,1.3-2.9,2.1c-0.6,0.8-0.9,1.7-0.9,2.8c0,1,0.2,1.8,0.5,2.5c0.3,0.7,0.7,1.3,1.3,1.7
			c0.5,0.5,1.1,0.8,1.8,1C114.9,70.1,115.6,70.2,116.4,70.2z"/>
		<path class="st7" d="M135,71.7V42.7h1.5c0.5,0,0.8,0.2,0.9,0.7l0.3,4.4c1.3-1.7,2.9-3,4.6-4c1.8-1,3.7-1.5,5.9-1.5
			c1.6,0,3,0.3,4.2,0.8c1.2,0.5,2.2,1.2,3,2.2c0.8,1,1.4,2.1,1.8,3.5c0.4,1.3,0.6,2.8,0.6,4.6v18.6h-2.8V53.2c0-2.7-0.6-4.9-1.9-6.4
			c-1.2-1.6-3.1-2.3-5.7-2.3c-1.9,0-3.7,0.5-5.3,1.5c-1.6,1-3.1,2.3-4.4,4v21.8H135z"/>
		<path class="st7" d="M163.7,71.7V42.7h1.5c0.5,0,0.8,0.2,0.9,0.7l0.3,4.4c1.3-1.7,2.9-3,4.6-4s3.7-1.5,5.9-1.5
			c1.6,0,3,0.3,4.2,0.8c1.2,0.5,2.2,1.2,3,2.2c0.8,1,1.4,2.1,1.8,3.5c0.4,1.3,0.6,2.8,0.6,4.6v18.6h-2.8V53.2c0-2.7-0.6-4.9-1.9-6.4
			c-1.2-1.6-3.2-2.3-5.7-2.3c-1.9,0-3.7,0.5-5.3,1.5c-1.6,1-3.1,2.3-4.4,4v21.8H163.7z"/>
		<path class="st7" d="M210.9,71.7c-0.6,0-0.9-0.3-1.1-0.8l-0.4-3.7c-0.8,0.8-1.6,1.5-2.4,2.1c-0.8,0.6-1.6,1.1-2.5,1.6
			c-0.8,0.4-1.8,0.8-2.8,1c-1,0.2-2.1,0.3-3.3,0.3c-1,0-1.9-0.1-2.9-0.4c-0.9-0.3-1.8-0.7-2.5-1.3c-0.7-0.6-1.3-1.4-1.7-2.3
			c-0.4-1-0.6-2.1-0.6-3.4c0-1.2,0.3-2.4,1.1-3.4c0.7-1.1,1.8-2,3.3-2.8c1.5-0.8,3.4-1.4,5.7-1.9c2.4-0.5,5.2-0.7,8.4-0.8v-3
			c0-2.7-0.6-4.7-1.7-6.2c-1.1-1.5-2.9-2.2-5.1-2.2c-1.4,0-2.6,0.2-3.6,0.6c-1,0.4-1.8,0.8-2.5,1.3c-0.7,0.5-1.2,0.9-1.7,1.3
			c-0.4,0.4-0.8,0.6-1.1,0.6c-0.4,0-0.7-0.2-0.9-0.5l-0.5-0.9c1.5-1.5,3.1-2.7,4.8-3.4c1.7-0.8,3.6-1.2,5.7-1.2
			c1.5,0,2.9,0.2,4.1,0.7c1.2,0.5,2.2,1.2,2.9,2.1c0.8,0.9,1.4,2,1.7,3.3c0.4,1.3,0.6,2.8,0.6,4.4v18.9H210.9z M199.3,70.2
			c1.1,0,2.2-0.1,3.1-0.4c0.9-0.2,1.8-0.6,2.6-1c0.8-0.4,1.5-1,2.3-1.6c0.7-0.6,1.4-1.3,2.1-1.9v-7.6c-2.8,0.1-5.1,0.3-7.1,0.6
			c-2,0.4-3.7,0.8-5,1.4c-1.3,0.6-2.2,1.3-2.9,2.1c-0.6,0.8-0.9,1.7-0.9,2.8c0,1,0.2,1.8,0.5,2.5c0.3,0.7,0.7,1.3,1.3,1.7
			c0.5,0.5,1.2,0.8,1.8,1C197.8,70.1,198.5,70.2,199.3,70.2z"/>
		<path class="st7" d="M216.2,69.5c0-0.4,0.1-0.7,0.2-1.1c0.2-0.3,0.3-0.6,0.6-0.8c0.2-0.2,0.5-0.4,0.9-0.6c0.3-0.1,0.7-0.2,1.1-0.2
			c0.4,0,0.7,0.1,1,0.2c0.3,0.2,0.6,0.4,0.9,0.6c0.2,0.2,0.4,0.5,0.6,0.8c0.1,0.3,0.2,0.7,0.2,1.1c0,0.4-0.1,0.7-0.2,1.1
			c-0.2,0.3-0.4,0.6-0.6,0.9c-0.2,0.2-0.5,0.4-0.9,0.5c-0.3,0.2-0.7,0.2-1,0.2c-0.8,0-1.4-0.3-1.9-0.8
			C216.5,70.9,216.2,70.2,216.2,69.5z"/>
		<path class="st7" d="M226.8,71.7V29.2h2.8l0,18.5c1.3-1.7,2.8-3.1,4.5-4.1c1.7-1,3.6-1.5,5.7-1.5c3.6,0,6.3,1.2,8.3,3.7
			c2,2.5,3,6.2,3,11.1c0,2.1-0.3,4.1-0.8,5.9c-0.6,1.8-1.4,3.4-2.5,4.8c-1.1,1.4-2.4,2.4-4,3.2c-1.6,0.8-3.4,1.2-5.4,1.2
			c-2,0-3.8-0.4-5.2-1.2c-1.5-0.8-2.7-2-3.8-3.5l-0.2,3.6c-0.1,0.5-0.3,0.7-0.8,0.7H226.8z M239,44.4c-1.9,0-3.7,0.5-5.2,1.5
			c-1.6,1-2.9,2.4-4.2,4.2v15.3c1.1,1.7,2.3,2.9,3.7,3.5c1.4,0.7,2.9,1,4.7,1c1.7,0,3.2-0.3,4.5-0.9c1.3-0.6,2.3-1.5,3.2-2.6
			c0.9-1.2,1.5-2.5,2-4.1c0.5-1.6,0.7-3.3,0.7-5.3c0-4.3-0.8-7.5-2.4-9.5C244.3,45.4,242,44.4,239,44.4z"/>
		<path class="st7" d="M259.1,42.7v29.1h-2.8V42.7H259.1z"/>
		<path class="st7" d="M285.9,43.9c0,0.4-0.1,0.8-0.4,1.1l-18.2,24.6h17.9v2.2h-21.2v-1.1c0-0.3,0.1-0.7,0.4-1.1l18.3-24.7h-17.7
			v-2.2h21V43.9z"/>
	</g>
</g>
</svg>
